name ./resultDataOpenSim/trcMotMarkerGrf/sub06/grf-01-05.mot
datacolumns 19
datarows 15
range 1.50800000 1.56400000
endheader

                time	     ground_force_vx	     ground_force_vy	     ground_force_vz	     ground_force_px	     ground_force_py	     ground_force_pz	   l_ground_force_vx	   l_ground_force_vy	   l_ground_force_vz	   l_ground_force_px	   l_ground_force_py	   l_ground_force_pz	     ground_torque_x	     ground_torque_y	     ground_torque_z	   l_ground_torque_x	   l_ground_torque_y	   l_ground_torque_z	
          1.50800000	        102.02116375	        628.63869956	        -20.43968402	          0.79716060	          0.00000000	          0.12283170	          0.00000000	          0.00000000	          0.00000000	          0.00000000	          0.00000000	          0.00000000	          0.00000000	          3.85653309	          0.00000000	          0.00000000	          0.00000000	          0.00000000	
          1.51200000	        108.08125925	        639.70687401	        -21.80896180	          0.79749323	          0.00000000	          0.12252717	          0.00000000	          0.00000000	          0.00000000	          0.00000000	          0.00000000	          0.00000000	          0.00000000	          4.06553188	          0.00000000	          0.00000000	          0.00000000	          0.00000000	
          1.51600000	        113.87225794	        650.33904969	        -22.61308220	          0.79787831	          0.00000000	          0.12219935	          0.00000000	          0.00000000	          0.00000000	          0.00000000	          0.00000000	          0.00000000	          0.00000000	          4.22571221	          0.00000000	          0.00000000	          0.00000000	          0.00000000	
          1.52000000	        119.37615786	        660.45660385	        -22.74615517	          0.79831228	          0.00000000	          0.12183732	          0.00000000	          0.00000000	          0.00000000	          0.00000000	          0.00000000	          0.00000000	          0.00000000	          4.32602896	          0.00000000	          0.00000000	          0.00000000	          0.00000000	
          1.52400000	        124.66534821	        669.94530141	        -22.23838856	          0.79878461	          0.00000000	          0.12144427	          0.00000000	          0.00000000	          0.00000000	          0.00000000	          0.00000000	          0.00000000	          0.00000000	          4.36368677	          0.00000000	          0.00000000	          0.00000000	          0.00000000	
          1.52800000	        129.85774404	        678.66480465	        -21.23581663	          0.79926937	          0.00000000	          0.12103372	          0.00000000	          0.00000000	          0.00000000	          0.00000000	          0.00000000	          0.00000000	          0.00000000	          4.34623296	          0.00000000	          0.00000000	          0.00000000	          0.00000000	
          1.53200000	        135.06818078	        686.48278529	        -19.96804113	          0.79973430	          0.00000000	          0.12062442	          0.00000000	          0.00000000	          0.00000000	          0.00000000	          0.00000000	          0.00000000	          0.00000000	          4.29101824	          0.00000000	          0.00000000	          0.00000000	          0.00000000	
          1.53600000	        140.37572595	        693.30201199	        -18.70981683	          0.80016838	          0.00000000	          0.12023539	          0.00000000	          0.00000000	          0.00000000	          0.00000000	          0.00000000	          0.00000000	          0.00000000	          4.22180775	          0.00000000	          0.00000000	          0.00000000	          0.00000000	
          1.54000000	        145.80984973	        699.06683684	        -17.73546194	          0.80056554	          0.00000000	          0.11987416	          0.00000000	          0.00000000	          0.00000000	          0.00000000	          0.00000000	          0.00000000	          0.00000000	          4.16364389	          0.00000000	          0.00000000	          0.00000000	          0.00000000	
          1.54400000	        151.35249809	        703.74673592	        -17.26671378	          0.80092172	          0.00000000	          0.11953939	          0.00000000	          0.00000000	          0.00000000	          0.00000000	          0.00000000	          0.00000000	          0.00000000	          4.13757841	          0.00000000	          0.00000000	          0.00000000	          0.00000000	
          1.54800000	        156.96015442	        707.30926715	        -17.42084480	          0.80124448	          0.00000000	          0.11922884	          0.00000000	          0.00000000	          0.00000000	          0.00000000	          0.00000000	          0.00000000	          0.00000000	          4.15646423	          0.00000000	          0.00000000	          0.00000000	          0.00000000	
          1.55200000	        162.60914937	        709.70120645	        -18.17187056	          0.80154157	          0.00000000	          0.11893955	          0.00000000	          0.00000000	          0.00000000	          0.00000000	          0.00000000	          0.00000000	          0.00000000	          4.22220329	          0.00000000	          0.00000000	          0.00000000	          0.00000000	
          1.55600000	        168.34857079	        710.84306406	        -19.34164737	          0.80182189	          0.00000000	          0.11866532	          0.00000000	          0.00000000	          0.00000000	          0.00000000	          0.00000000	          0.00000000	          0.00000000	          4.32447643	          0.00000000	          0.00000000	          0.00000000	          0.00000000	
          1.56000000	        174.31506029	        710.62688297	        -20.64284258	          0.80209051	          0.00000000	          0.11839526	          0.00000000	          0.00000000	          0.00000000	          0.00000000	          0.00000000	          0.00000000	          0.00000000	          4.44136013	          0.00000000	          0.00000000	          0.00000000	          0.00000000	
          1.56400000	        180.66344213	        708.90533222	        -21.77622641	          0.80230994	          0.00000000	          0.11811968	          0.00000000	          0.00000000	          0.00000000	          0.00000000	          0.00000000	          0.00000000	          0.00000000	          4.54278489	          0.00000000	          0.00000000	          0.00000000	          0.00000000	
